<?xml version="1.0" encoding="iso-8859-1"?>
<!-- Generator: Adobe Illustrator 16.0.0, SVG Export Plug-In . SVG Version: 6.00 Build 0)  -->
<!DOCTYPE svg PUBLIC "-//W3C//DTD SVG 1.1//EN" "http://www.w3.org/Graphics/SVG/1.1/DTD/svg11.dtd">
<svg version="1.1" id="Capa_1" xmlns="http://www.w3.org/2000/svg" xmlns:xlink="http://www.w3.org/1999/xlink" x="0px" y="0px"
	 width="32px" height="32px" viewBox="0 0 512 512" style="enable-background:new 0 0 512 512;" xml:space="preserve">
<g>
	<path d="M493.25,402.75L393.094,302.562C407.625,274.172,416,242.094,416,208C416,93.125,322.875,0,208,0C93.109,0,0,93.125,0,208
		s93.109,208,208,208c33.953,0,65.906-8.312,94.219-22.719c-0.031,0-0.094,0.031-0.125,0.062c0.156-0.094,0.344-0.156,0.531-0.25
		L402.75,493.25c25.031,25,65.562,25,90.5,0C518.25,468.281,518.25,427.75,493.25,402.75z M48,208c0-88.219,71.781-160,160-160
		c88.219,0,160,71.781,160,160s-71.781,160-160,160S48,296.219,48,208z M459.312,436.656c-6.25,6.25-16.375,6.25-22.625,0
		l-45.25-45.25c-6.25-6.25-6.25-16.375,0-22.625s16.375-6.25,22.625,0l45.25,45.25C465.594,420.281,465.594,430.406,459.312,436.656
		z"/>
</g>
<g>
</g>
<g>
</g>
<g>
</g>
<g>
</g>
<g>
</g>
<g>
</g>
<g>
</g>
<g>
</g>
<g>
</g>
<g>
</g>
<g>
</g>
<g>
</g>
<g>
</g>
<g>
</g>
<g>
</g>
</svg>
